<svg width="122" height="32" viewBox="0 0 122 32" fill="none" xmlns="http://www.w3.org/2000/svg">
<path d="M51.268 25.104C50.0027 25.104 48.8673 24.792 47.862 24.168C46.8567 23.5267 46.0593 22.6687 45.47 21.594C44.898 20.502 44.612 19.2713 44.612 17.902C44.612 16.5327 44.924 15.302 45.548 14.21C46.1893 13.118 47.0473 12.26 48.122 11.636C49.214 10.9947 50.436 10.674 51.788 10.674C53.14 10.674 54.3533 10.9947 55.428 11.636C56.5027 12.26 57.352 13.118 57.976 14.21C58.6173 15.302 58.938 16.5327 58.938 17.902H57.924C57.924 19.2713 57.6293 20.502 57.04 21.594C56.468 22.6687 55.6793 23.5267 54.674 24.168C53.6687 24.792 52.5333 25.104 51.268 25.104ZM51.788 22.764C52.672 22.764 53.4607 22.556 54.154 22.14C54.8473 21.7067 55.3933 21.126 55.792 20.398C56.1907 19.6527 56.39 18.8207 56.39 17.902C56.39 16.966 56.1907 16.134 55.792 15.406C55.3933 14.6607 54.8473 14.08 54.154 13.664C53.4607 13.2307 52.672 13.014 51.788 13.014C50.9213 13.014 50.1327 13.2307 49.422 13.664C48.7287 14.08 48.174 14.6607 47.758 15.406C47.3593 16.134 47.16 16.966 47.16 17.902C47.16 18.8207 47.3593 19.6527 47.758 20.398C48.174 21.126 48.7287 21.7067 49.422 22.14C50.1327 22.556 50.9213 22.764 51.788 22.764ZM57.612 25.026C57.2307 25.026 56.91 24.9047 56.65 24.662C56.4073 24.402 56.286 24.0813 56.286 23.7V19.722L56.78 16.966L58.938 17.902V23.7C58.938 24.0813 58.808 24.402 58.548 24.662C58.3053 24.9047 57.9933 25.026 57.612 25.026ZM66.2649 25C65.5023 25 64.8263 24.792 64.2369 24.376C63.6476 23.96 63.1883 23.3967 62.8589 22.686C62.5296 21.958 62.3649 21.126 62.3649 20.19V5.994C62.3649 5.61267 62.4863 5.30067 62.7289 5.058C62.9716 4.81533 63.2836 4.694 63.6649 4.694C64.0463 4.694 64.3583 4.81533 64.6009 5.058C64.8436 5.30067 64.9649 5.61267 64.9649 5.994V20.19C64.9649 20.8313 65.0863 21.36 65.3289 21.776C65.5716 22.192 65.8836 22.4 66.2649 22.4H66.9149C67.2616 22.4 67.5389 22.5213 67.7469 22.764C67.9723 23.0067 68.0849 23.3187 68.0849 23.7C68.0849 24.0813 67.9203 24.3933 67.5909 24.636C67.2616 24.8787 66.8369 25 66.3169 25H66.2649ZM72.0058 31.084C71.6245 31.084 71.3038 30.954 71.0438 30.694C70.8012 30.4513 70.6798 30.1393 70.6798 29.758V17.902C70.6972 16.5327 71.0178 15.302 71.6418 14.21C72.2658 13.118 73.1152 12.26 74.1898 11.636C75.2645 10.9947 76.4778 10.674 77.8298 10.674C79.1992 10.674 80.4212 10.9947 81.4958 11.636C82.5705 12.26 83.4198 13.118 84.0438 14.21C84.6852 15.302 85.0058 16.5327 85.0058 17.902C85.0058 19.2713 84.7112 20.502 84.1218 21.594C83.5498 22.6687 82.7612 23.5267 81.7558 24.168C80.7505 24.792 79.6152 25.104 78.3498 25.104C77.3272 25.104 76.3825 24.896 75.5158 24.48C74.6665 24.0467 73.9385 23.466 73.3318 22.738V29.758C73.3318 30.1393 73.2105 30.4513 72.9678 30.694C72.7252 30.954 72.4045 31.084 72.0058 31.084ZM77.8298 22.764C78.7138 22.764 79.5025 22.556 80.1958 22.14C80.8892 21.7067 81.4352 21.126 81.8338 20.398C82.2498 19.6527 82.4578 18.8207 82.4578 17.902C82.4578 16.966 82.2498 16.134 81.8338 15.406C81.4352 14.6607 80.8892 14.08 80.1958 13.664C79.5025 13.2307 78.7138 13.014 77.8298 13.014C76.9632 13.014 76.1745 13.2307 75.4638 13.664C74.7705 14.08 74.2245 14.6607 73.8258 15.406C73.4272 16.134 73.2278 16.966 73.2278 17.902C73.2278 18.8207 73.4272 19.6527 73.8258 20.398C74.2245 21.126 74.7705 21.7067 75.4638 22.14C76.1745 22.556 76.9632 22.764 77.8298 22.764ZM90.2871 19.826C89.9058 19.826 89.5851 19.7047 89.3251 19.462C89.0824 19.202 88.9611 18.8813 88.9611 18.5V6.02C88.9611 5.62133 89.0824 5.30067 89.3251 5.058C89.5851 4.81533 89.9058 4.694 90.2871 4.694C90.6858 4.694 91.0064 4.81533 91.2491 5.058C91.4918 5.30067 91.6131 5.62133 91.6131 6.02V18.5C91.6131 18.8813 91.4918 19.202 91.2491 19.462C91.0064 19.7047 90.6858 19.826 90.2871 19.826ZM100.973 25.026C100.592 25.026 100.271 24.9047 100.011 24.662C99.7684 24.402 99.6471 24.0813 99.6471 23.7V17.304C99.6471 16.316 99.4651 15.51 99.1011 14.886C98.7371 14.262 98.2431 13.8027 97.6191 13.508C97.0124 13.196 96.3104 13.04 95.5131 13.04C94.7851 13.04 94.1264 13.1873 93.5371 13.482C92.9478 13.7767 92.4798 14.1753 92.1331 14.678C91.7864 15.1633 91.6131 15.7267 91.6131 16.368H89.9751C89.9751 15.276 90.2351 14.3053 90.7551 13.456C91.2924 12.5893 92.0204 11.9047 92.9391 11.402C93.8578 10.8993 94.8891 10.648 96.0331 10.648C97.2291 10.648 98.2951 10.908 99.2311 11.428C100.184 11.9307 100.93 12.676 101.467 13.664C102.022 14.652 102.299 15.8653 102.299 17.304V23.7C102.299 24.0813 102.169 24.402 101.909 24.662C101.666 24.9047 101.354 25.026 100.973 25.026ZM90.2871 25.026C89.9058 25.026 89.5851 24.9047 89.3251 24.662C89.0824 24.402 88.9611 24.0813 88.9611 23.7V12.104C88.9611 11.7053 89.0824 11.3847 89.3251 11.142C89.5851 10.8993 89.9058 10.778 90.2871 10.778C90.6858 10.778 91.0064 10.8993 91.2491 11.142C91.4918 11.3847 91.6131 11.7053 91.6131 12.104V23.7C91.6131 24.0813 91.4918 24.402 91.2491 24.662C91.0064 24.9047 90.6858 25.026 90.2871 25.026ZM112.637 25.104C111.372 25.104 110.236 24.792 109.231 24.168C108.226 23.5267 107.428 22.6687 106.839 21.594C106.267 20.502 105.981 19.2713 105.981 17.902C105.981 16.5327 106.293 15.302 106.917 14.21C107.558 13.118 108.416 12.26 109.491 11.636C110.583 10.9947 111.805 10.674 113.157 10.674C114.509 10.674 115.722 10.9947 116.797 11.636C117.872 12.26 118.721 13.118 119.345 14.21C119.986 15.302 120.307 16.5327 120.307 17.902H119.293C119.293 19.2713 118.998 20.502 118.409 21.594C117.837 22.6687 117.048 23.5267 116.043 24.168C115.038 24.792 113.902 25.104 112.637 25.104ZM113.157 22.764C114.041 22.764 114.83 22.556 115.523 22.14C116.216 21.7067 116.762 21.126 117.161 20.398C117.56 19.6527 117.759 18.8207 117.759 17.902C117.759 16.966 117.56 16.134 117.161 15.406C116.762 14.6607 116.216 14.08 115.523 13.664C114.83 13.2307 114.041 13.014 113.157 13.014C112.29 13.014 111.502 13.2307 110.791 13.664C110.098 14.08 109.543 14.6607 109.127 15.406C108.728 16.134 108.529 16.966 108.529 17.902C108.529 18.8207 108.728 19.6527 109.127 20.398C109.543 21.126 110.098 21.7067 110.791 22.14C111.502 22.556 112.29 22.764 113.157 22.764ZM118.981 25.026C118.6 25.026 118.279 24.9047 118.019 24.662C117.776 24.402 117.655 24.0813 117.655 23.7V19.722L118.149 16.966L120.307 17.902V23.7C120.307 24.0813 120.177 24.402 119.917 24.662C119.674 24.9047 119.362 25.026 118.981 25.026Z" fill="#28263B"/>
<path d="M17.4155 27.1593C13.1288 27.1593 10.2699 31.5348 6.09657 30.555C-8.36648 27.1593 6.09658 1 16.5352 1C21.6022 1 28.798 8.37455 26.3449 11.6901C23.7038 14.5827 20.6915 10.5582 15.4033 10.5582C8.10887 10.5582 6.09657 19.4786 11.0015 21.6256C16.3948 23.9864 20.0567 16.8465 25.3388 16.8465C32.6623 16.8465 35.0228 28.2912 28.483 30.8065C25.3388 32.0158 21.7023 27.1593 17.4155 27.1593Z" fill="url(#paint0_radial_7623_11918)"/>
<path fill-rule="evenodd" clip-rule="evenodd" d="M15.4088 27.4695C16.0473 27.2769 16.7122 27.1591 17.4155 27.1591C19.4525 27.1591 21.3428 28.2558 23.1031 29.2771C25.0472 30.405 26.8328 31.441 28.4829 30.8063C30.1551 30.1632 31.2454 28.9362 31.8196 27.466C30.8391 24.8051 28.5901 22.6316 25.3986 22.6316C23.0976 22.6316 21.1041 23.9864 19.1411 25.3206C17.9079 26.1587 16.6867 26.9886 15.4088 27.4695Z" fill="url(#paint1_radial_7623_11918)"/>
<path d="M21.0084 11.879L21.0084 11.879C23.159 12.7193 24.8143 13.366 26.3448 11.6897C27.786 9.74178 25.8968 6.39287 23.0655 3.96149C23.0144 3.91764 22.9587 3.87929 22.8994 3.84742C21.6444 3.17271 20.3545 2.7603 19.1762 2.7603C12.241 2.7603 8.37 9.8104 8.31557 17.1613C8.35835 14.0286 10.8532 10.5578 15.4032 10.5578C17.6268 10.5578 19.448 11.2693 21.0084 11.879Z" fill="url(#paint2_radial_7623_11918)"/>
<defs>
<radialGradient id="paint0_radial_7623_11918" cx="0" cy="0" r="1" gradientUnits="userSpaceOnUse" gradientTransform="translate(-9.5 4) rotate(27.7451) scale(48.386 55.3472)">
<stop stop-color="#BE40C0"/>
<stop offset="1" stop-color="#FBA82B"/>
</radialGradient>
<radialGradient id="paint1_radial_7623_11918" cx="0" cy="0" r="1" gradientUnits="userSpaceOnUse" gradientTransform="translate(20.5 25) rotate(24.2602) scale(21.1715 16.3506)">
<stop stop-color="#48CCE0"/>
<stop offset="0.38" stop-color="#505ADD"/>
<stop offset="0.682" stop-color="#BE40C0"/>
<stop offset="0.943" stop-color="#FBA82B"/>
</radialGradient>
<radialGradient id="paint2_radial_7623_11918" cx="0" cy="0" r="1" gradientUnits="userSpaceOnUse" gradientTransform="translate(-7.50005 -2.49996) rotate(26.6349) scale(39.066 40.6626)">
<stop offset="0.310718" stop-color="#48CCE0"/>
<stop offset="0.399794" stop-color="#505ADD"/>
<stop offset="0.691985" stop-color="#BE40C0"/>
<stop offset="0.943" stop-color="#FBA82B"/>
</radialGradient>
</defs>
</svg>
